<?xml version="1.0" encoding="UTF-8"?> <svg xmlns="http://www.w3.org/2000/svg" id="_Шар_2" data-name="Шар 2" viewBox="0 0 38.96 46.81"> <defs> <style> .cls-1 { fill: #f8871f; } </style> </defs> <g id="_Слой_1" data-name="Слой 1"> <g> <path class="cls-1" d="m16.58,5.13C15.14,2.04,11.83-.19,8.36.01S1.44,2.82.45,6.33c-1.06,3.76,1.14,7.57,4.59,9.15,3.21,1.46,8.1,1.76,10.41-1.4,1.23-1.68,1.65-3.94,1.46-5.98-.1-1.07-.32-2.2-.81-3.17-.54-1.08-1.83-.94-2.46-.02-.71,1.04.98,2.01,1.68.98l-.42.24-.58-.45c1.05,2.38,1.11,6.13-1.08,7.95-1.06.88-2.56.97-3.88.9-1.43-.07-2.86-.41-4.1-1.13-2.47-1.43-3.78-4.3-2.77-7.04.88-2.37,3.23-4.2,5.76-4.39,2.88-.22,5.45,1.6,6.64,4.15.53,1.14,2.21.15,1.68-.98h0Z"></path> <path class="cls-1" d="m7.83,16.26c.3,6.05.59,12.1.89,18.16.06,1.25,2.01,1.26,1.95,0-.3-6.05-.59-12.1-.89-18.16-.06-1.25-2.01-1.26-1.95,0h0Z"></path> <path class="cls-1" d="m8.91,32.66c-3.01,3.84-5.82,7.82-8.41,11.96l1.78.75c.04-.2.08-.4.12-.6.25-1.23-1.63-1.75-1.88-.52-.04.2-.08.4-.12.6-.22,1.07,1.18,1.72,1.78.75,2.5-3.99,5.2-7.86,8.1-11.56.32-.41.4-.98,0-1.38-.34-.34-1.05-.42-1.38,0h0Z"></path> <path class="cls-1" d="m9.96,35.7c1.22,2.2,2.56,4.32,4.03,6.36.36.5.72.99,1.1,1.47.4.52.83,1.27,1.59,1.27.85,0,1.41-.9.97-1.65-.39-.66-1.46-.8-1.83-.03-.23.47-.13,1.05.35,1.33.43.25,1.1.13,1.33-.35l.02-.05-.84.48h.04c-.16-.05-.33-.09-.49-.14l-.11-.07-.25-.43v-.14c.08-.23.18-.46.27-.69l-.04.04.43-.25-.11.02h.52l-.11-.04.43.25c-.29-.23-.5-.58-.72-.87-.26-.34-.51-.68-.76-1.03-.5-.69-.99-1.39-1.46-2.1-.95-1.42-1.83-2.89-2.66-4.38-.61-1.1-2.29-.12-1.68.98h0Z"></path> <path class="cls-1" d="m6.88,20.79c-.03.1-.03.1-.14.24.06-.08-.04.03-.05.04-.05.05-.1.1-.15.15-.23.21-.45.37-.7.56-.59.46-1.19.91-1.78,1.37-1.19.91-2.38,1.83-3.56,2.74l1.43,1.1c.08-.22.15-.44.23-.66.17-.5-.2-1.07-.68-1.2-.54-.15-1.03.18-1.2.68-.08.22-.15.44-.23.66-.12.36.06.81.35,1.02s.77.31,1.08.08c1.3-1,2.59-1.99,3.89-2.99.63-.48,1.26-.97,1.89-1.45s1.24-1,1.51-1.82c.17-.5-.19-1.06-.68-1.2-.53-.15-1.03.18-1.2.68h0Z"></path> <path class="cls-1" d="m8.7,22.62c2.61,1.82,5.23,3.65,7.84,5.47.43.3,1.08.08,1.33-.35.28-.49.08-1.03-.35-1.33-2.61-1.82-5.23-3.65-7.84-5.47-.43-.3-1.08-.08-1.33.35-.28.49-.08,1.03.35,1.33h0Z"></path> <path class="cls-1" d="m37.88,9.89c-2.11-3.21-5.94-4.43-9.47-2.82s-6.96,5.84-7.19,9.78c-.11,1.89.73,3.72,2.41,4.65s3.72.91,5.55,1.31c2.26.48,5.04,1.12,6.6,2.98,1.68,2.01,1.53,4.81-.28,6.66s-4.51,2.35-6.99,1.78c-2.35-.54-4.8-1.83-5.42-4.33-.3-1.22-2.18-.7-1.88.52.98,3.94,5.48,5.98,9.26,6s8.11-2.72,8.45-6.91c.41-5.08-4.38-7.41-8.54-8.41-1.85-.45-4.24-.33-5.91-1.34-2.31-1.4-1.13-4.55-.02-6.33,1.31-2.1,3.24-4.22,5.7-4.92s4.71.38,6.03,2.39c.69,1.05,2.37.07,1.68-.98h0Z"></path> <path class="cls-1" d="m29.4,2.71c.59,12.75.16,25.53-1.31,38.2-.14,1.24,1.81,1.23,1.95,0,1.47-12.68,1.9-25.45,1.31-38.2-.06-1.25-2.01-1.26-1.95,0h0Z"></path> </g> </g> </svg> 