<?xml version="1.0" encoding="UTF-8"?> <svg xmlns="http://www.w3.org/2000/svg" id="_Шар_2" data-name="Шар 2" viewBox="0 0 38.03 46.9"> <defs> <style> .cls-1 { fill: #f8871f; } </style> </defs> <g id="_Слой_1" data-name="Слой 1"> <g> <path class="cls-1" d="m.11,12.86c0,7.08-.01,14.16-.02,21.24,0,3.44-.19,6.94,0,10.37.05.98.47,1.73,1.51,1.89,1.53.23,3.32-.25,4.85-.42,3.29-.37,6.54-.61,9.84-.25s6.68,1.08,10.07,1.19c2.53.08,6.23.05,8.1-1.96.76-.82,1.09-1.94,1.26-3.02.26-1.61.39-3.24.56-4.86.83-7.79,1.41-15.61,1.75-23.44.02-.51-.46-.99-.97-.97-10.66.37-21.33.75-31.99,1.12-1.25.04-1.26,1.99,0,1.95,10.66-.37,21.33-.75,31.99-1.12l-.97-.97c-.27,6.2-.69,12.39-1.27,18.57-.29,3.06-.5,6.17-.98,9.22-.21,1.34-.62,2.44-2,2.93s-3.06.62-4.58.63c-2.98.02-5.93-.53-8.88-.94s-5.73-.57-8.64-.34c-1.42.11-2.83.28-4.25.44-.79.09-1.57.18-2.36.25-.19.02-.83.14-.94.08-.19.1-.24.02-.16-.21v-.74c0-3.13,0-6.26,0-9.38,0-7.08.01-14.16.02-21.24,0-1.25-1.95-1.26-1.95,0H.11Z"></path> <path class="cls-1" d="m16.24,15.7c.37,5.05.55,10.11.54,15.17,0,2.45-.06,4.9-.16,7.35-.08,1.95-.16,3.95,1.02,5.61.72,1.02,2.41.04,1.68-.98-1.22-1.72-.76-4.11-.7-6.1.07-2.28.11-4.57.1-6.86-.01-4.74-.2-9.47-.54-14.19-.09-1.24-2.04-1.25-1.95,0h0Z"></path> <path class="cls-1" d="m16.37,12.54C11.47,10.27,7.59,6.16,5.95.98l-.45,1.1c1.59-.68,3.39.54,4.69,1.36,1.21.77,2.4,1.57,3.51,2.47,2.18,1.77,4.09,3.89,4.82,6.67.32,1.22,2.16.7,1.88-.52-.58-2.56,2.07-4.7,3.76-6.2.97-.87,1.98-1.7,3.02-2.48.49-.37.97-.88,1.61-.81.8.08.94.99.92,1.72-.07,2.41-2.36,4.02-4.23,5.11-2.31,1.34-4.69,2.55-7.04,3.82-1.1.6-.12,2.28.98,1.68,3.17-1.71,6.8-3.21,9.55-5.57,2.08-1.78,3.85-5.38,1.82-7.86-.88-1.07-2.2-1.27-3.41-.62-1.6.86-3.09,2.28-4.45,3.47-2.38,2.1-5.22,4.76-4.43,8.25l1.88-.52c-.91-3.45-3.37-6.05-6.14-8.17S8-1.08,4.52.4c-.38.16-.57.73-.45,1.1,1.78,5.64,5.97,10.24,11.31,12.73,1.13.53,2.12-1.15.98-1.68h0Z"></path> </g> </g> </svg> 