<?xml version="1.0" encoding="UTF-8"?> <svg xmlns="http://www.w3.org/2000/svg" width="341.89" height="123.15" viewBox="0 0 341.89 123.15"> <defs> <style> .cls-1 { fill: gold; } .cls-2 { fill: #0057b8; } </style> </defs> <g id="Слой_2" data-name="Слой 2"> <g id="Слой_1-2" data-name="Слой 1"> <path d="M98.92,118a26.85,26.85,0,1,1,26.85-26.85A26.88,26.88,0,0,1,98.92,118Z"></path> <path d="M29.92,119.65A26.08,26.08,0,0,1,4.75,100.27c-.17-.62-.31-1.25-.43-1.88A25.78,25.78,0,0,1,22.67,67.05l2.54-.65c4.15-1,8.07-2,11.21-4.43,6.48-5,9-11.73,7.86-21.22-.15-1.27-.41-2.56-.68-3.92s-.5-2.46-.68-3.76A26.51,26.51,0,0,1,69.15,3.5a26.09,26.09,0,0,1,16.8,46l-.13.1a31.54,31.54,0,0,1-13.48,6C58.43,58.63,51.7,68,53.88,81.24c.17,1,.42,2.09.69,3.21.21.86.41,1.71.58,2.56a26.05,26.05,0,0,1-25.23,32.64Z"></path> <path class="cls-1" d="M98.92,67.81A23.35,23.35,0,1,1,75.57,91.16,23.35,23.35,0,0,1,98.92,67.81m0-7a30.35,30.35,0,1,0,30.35,30.35A30.39,30.39,0,0,0,98.92,60.81Z"></path> <path class="cls-2" d="M69.15,7A22.58,22.58,0,0,1,83.69,46.86a27.83,27.83,0,0,1-12,5.3C56.3,55.49,47.88,66.31,50.42,81.8c.33,2,.92,4,1.32,6a22.54,22.54,0,0,1-16,27.59,22.27,22.27,0,0,1-5.8.76A22.56,22.56,0,0,1,8.13,99.37q-.23-.86-.39-1.74a22.25,22.25,0,0,1,15.82-27.2c5.19-1.37,10.57-2.26,15-5.7,8.06-6.2,10.33-14.7,9.19-24.39-.31-2.61-1-5.15-1.37-7.76A22.33,22.33,0,0,1,61.28,8.42,22.69,22.69,0,0,1,69.15,7m0-7h0a30,30,0,0,0-29.7,33.53c.2,1.43.46,2.73.71,4s.51,2.51.64,3.65c1,8.25-1,13.81-6.5,18-2.58,2-6,2.85-9.93,3.83l-2.59.65A29.29,29.29,0,0,0,.91,99.16c.13.67.28,1.35.46,2a29.56,29.56,0,0,0,57.19-15c-.18-.9-.39-1.76-.58-2.59-.26-1.06-.5-2.06-.65-3C54.83,65.43,66,60.57,73,59A35,35,0,0,0,88,52.42l.13-.1.12-.1A29.59,29.59,0,0,0,69.15,0Z"></path> <path d="M216,69.22a5.89,5.89,0,0,1-1.54-4.31V50h10.36V41.68H214.23v-8.6l-10-4.1V41.73h-7.15V50H204v16.3A12.62,12.62,0,0,0,217.64,80H225V70.73h-4.72a6.12,6.12,0,0,1-2.28-.32A5.81,5.81,0,0,1,216,69.22Z"></path> <path d="M260.79,68.38a10.65,10.65,0,0,1-14.65,0,10.33,10.33,0,0,1-2.89-7.61,10.4,10.4,0,0,1,2.85-7.6,10.66,10.66,0,0,1,14.67,0,10.38,10.38,0,0,1,2.89,7.6,10.36,10.36,0,0,1-.67,4,10.15,10.15,0,0,1-2.2,3.46ZM264,43.22a22.75,22.75,0,0,0-21.22,0,19.14,19.14,0,0,0-7.39,7.25,21.27,21.27,0,0,0,0,20.66,19.31,19.31,0,0,0,7.43,7.25A21.44,21.44,0,0,0,253.38,81,21.08,21.08,0,0,0,264,78.32a19.08,19.08,0,0,0,7.41-7.26,21.13,21.13,0,0,0,0-20.67A19.26,19.26,0,0,0,264,43.22Z"></path> <path d="M338.25,44.76a12.41,12.41,0,0,0-9.72-4.2,14,14,0,0,0-6.71,1.65,14.58,14.58,0,0,0-5.13,4.49,11.7,11.7,0,0,0-4.58-4.49,13.2,13.2,0,0,0-6.54-1.6,13.82,13.82,0,0,0-6.33,1.54,14.78,14.78,0,0,0-5.06,4.13V41.54H285V79.79h10.34V59.13a10.91,10.91,0,0,1,1.9-6.94,6.64,6.64,0,0,1,5.49-2.49,4.73,4.73,0,0,1,2.35.42A4.87,4.87,0,0,1,307,51.6a9.79,9.79,0,0,1,1.44,5.82V79.7h10.06V59a10.91,10.91,0,0,1,1.9-6.94,6.53,6.53,0,0,1,5.4-2.49,5,5,0,0,1,2.37.42,5,5,0,0,1,1.91,1.48,9.77,9.77,0,0,1,1.48,5.81v22.3h10.34v-24A15.87,15.87,0,0,0,338.25,44.76Z"></path> <path d="M175.09,68.34a10.77,10.77,0,0,1-14.9,0,10.91,10.91,0,0,1,0-15,10.79,10.79,0,0,1,14.9,0,10.85,10.85,0,0,1,0,15Zm4-26.61v3.5a18.1,18.1,0,0,0-12.37-4.47,20.42,20.42,0,0,0-10.27,2.64,18.64,18.64,0,0,0-7.18,7.24,21.84,21.84,0,0,0,0,20.65,18.64,18.64,0,0,0,7.21,7.26,20.66,20.66,0,0,0,10.32,2.7,18.25,18.25,0,0,0,12.32-4.56v3.46h9.07V41.9h-9.15Z"></path> </g> </g> </svg> 