<?xml version="1.0" encoding="UTF-8"?> <svg xmlns="http://www.w3.org/2000/svg" id="_Шар_2" data-name="Шар 2" viewBox="0 0 39.65 41.2"> <defs> <style> .cls-1 { fill: none; stroke: #29abe2; stroke-miterlimit: 10; stroke-width: 2px; } .cls-2 { fill: #29abe2; } </style> </defs> <g id="_Слой_1" data-name="Слой 1"> <path class="cls-2" d="m18.01,20.54c.03.86.58,1.62,1.41,1.87.13.04.26.05.39.06.06,0,.11,0,.17,0,.18-.01.37-.03.54-.1.27-.11.44-.21.67-.39.14-.11.26-.27.35-.42.24-.39.28-.85.19-1.29-.01-.05-.03-.1-.05-.15-.05-.12-.09-.25-.16-.36-.09-.15-.21-.3-.35-.42-.21-.17-.39-.29-.65-.37s-.52-.07-.79-.03c-.05,0-.1.02-.15.04-.12.05-.25.09-.36.16-.19.12-.34.26-.48.44s-.26.39-.31.62c-.06.27-.07.56.02.83.11.34.33.62.63.82.19.12.39.17.61.18.24.02.42-.06.63-.15s.39-.37.45-.58c.06-.23.04-.54-.1-.75s-.33-.39-.58-.45l-.26-.03c-.18,0-.34.04-.49.13h-.02c.08-.02.16-.06.23-.09-.01,0-.03,0-.04.01l.26-.03s-.04,0-.07,0l.26.03s-.04-.01-.07-.02l.23.1s-.06-.03-.08-.05l.2.15s-.06-.06-.09-.09l.15.2s-.05-.07-.06-.11l.1.23s-.02-.08-.03-.12l.03.26s0-.1,0-.14l-.03.26c0-.06.03-.12.05-.18l-.1.23c.03-.06.06-.11.1-.17l-.15.2c.04-.05.09-.1.14-.14l-.2.15c.05-.04.11-.07.17-.1l-.23.1c.06-.03.12-.04.19-.05l-.26.03s.1,0,.15,0l-.26-.03c.06,0,.12.02.18.05l-.23-.1c.06.03.11.06.16.09l-.2-.15c.06.04.11.09.15.15l-.15-.2c.05.06.09.13.12.2l-.1-.23c.03.07.04.13.06.2l-.03-.26c0,.06,0,.12,0,.19l.03-.26c0,.06-.03.12-.05.18l.1-.23c-.03.07-.06.13-.11.18l.15-.2c-.05.06-.1.11-.15.15l.2-.15c-.06.05-.13.09-.21.12l.23-.1c-.08.03-.17.06-.25.07l.26-.03c-.07,0-.14,0-.22,0l.26.03c-.08-.01-.15-.03-.22-.06l.23.1c-.07-.03-.13-.07-.2-.11l.2.15c-.07-.06-.14-.12-.2-.2l.15.2c-.05-.07-.09-.14-.13-.22l.1.23c-.04-.09-.06-.18-.08-.27l.03.26s0-.07,0-.1c0-.26-.1-.51-.29-.69-.17-.17-.45-.3-.69-.29s-.51.09-.69.29-.29.43-.29.69h0Z"></path> <g> <ellipse class="cls-1" cx="19.82" cy="20.6" rx="6.14" ry="19.88" transform="translate(-6.28 32.27) rotate(-70.19)"></ellipse> <ellipse class="cls-1" cx="19.82" cy="20.6" rx="6.14" ry="19.88" transform="translate(-3.33 3.83) rotate(-10.19)"></ellipse> <ellipse class="cls-1" cx="19.82" cy="20.6" rx="19.88" ry="6.14" transform="translate(-8.61 17.66) rotate(-40.19)"></ellipse> </g> </g> </svg> 