<?xml version="1.0" encoding="UTF-8"?> <svg xmlns="http://www.w3.org/2000/svg" id="_Шар_2" data-name="Шар 2" viewBox="0 0 39.35 41.34"> <defs> <style> .cls-1 { fill: #f8871f; } .cls-2 { fill: none; stroke: #f8871f; stroke-miterlimit: 10; stroke-width: 2px; } </style> </defs> <g id="_Слой_1" data-name="Слой 1"> <path class="cls-1" d="m18.81,18.92c-.27.1-.51.22-.71.44s-.34.46-.43.74c-.05.13-.06.28-.07.41,0,.07-.01.15,0,.22.03.31.1.56.24.84.1.19.25.38.41.52.24.2.44.32.73.44.39.16.82.15,1.23.07.2-.04.39-.12.57-.22.12-.07.23-.16.34-.24.05-.04.1-.09.15-.14.32-.37.49-.79.51-1.28.01-.2-.02-.41-.07-.6s-.13-.37-.23-.53c-.16-.24-.32-.4-.56-.57-.05-.03-.1-.06-.15-.09-.12-.05-.24-.11-.37-.14-.49-.11-1.01-.04-1.44.23-.25.15-.42.33-.59.57-.06.09-.1.17-.14.27s-.08.19-.1.3c-.05.17-.05.35,0,.52.05.17.13.31.25.43.19.15.38.29.57.44.12.12.27.2.43.25.13.04.26.05.39.02.31-.04.54-.2.71-.47l.02-.02-.15.2c.05-.05.1-.09.15-.14.15-.15.26-.34.32-.54.17-.62-.23-1.27-.88-1.36s-1.16.41-1.17,1.03c0,.65.63,1.2,1.28.99.24-.07.45-.23.58-.45s.17-.52.1-.75-.22-.46-.45-.58-.5-.18-.75-.1h-.01c.09,0,.17-.02.26-.03h-.01c.16.04.33.09.49.13h0c.07.05.13.1.2.15h0c.08.14.17.28.25.42,0,0,0-.01,0-.02l.03.26s0-.02,0-.03l-.03.26s0-.02,0-.03l-.1.23h0c-.05.05-.1.12-.15.18h0c-.07.04-.13.09-.2.14h.01c-.08.03-.16.06-.23.09h.01c-.09,0-.17.02-.26.03h.01c-.09-.01-.17-.02-.26-.04h.01c-.08-.03-.16-.06-.23-.09h.02c-.07-.04-.13-.09-.2-.14l.02.02-.15-.2v.02c-.02-.08-.05-.16-.09-.23v.02c0-.09-.02-.17-.03-.26,0,.02,0,.03,0,.05l.03-.26s0,.03-.01.05l.1-.23s-.01.03-.02.05l.15-.2s-.08.07-.12.11c-.1.08-.17.19-.24.29l1.53-.2c-.19-.15-.38-.29-.57-.44l.25.95c0-.07.03-.13.05-.19l-.1.23c.03-.06.06-.11.1-.16l-.15.2c.05-.06.1-.11.15-.15l-.2.15c.07-.05.14-.09.21-.12l-.23.1c.08-.03.17-.06.26-.07l-.26.03c.07,0,.15,0,.22,0l-.26-.03c.07.01.14.03.21.06l-.23-.1c.06.03.12.06.17.1l-.2-.15c.05.04.1.09.14.14l-.15-.2c.05.07.09.14.13.22l-.1-.23c.04.09.07.19.08.29l-.03-.26c.01.09.01.19,0,.28l.03-.26c-.01.08-.03.17-.07.25l.1-.23c-.03.08-.08.15-.13.22l.15-.2c-.05.06-.11.12-.18.17l.2-.15c-.07.05-.15.1-.24.14l.23-.1c-.1.04-.21.07-.32.09l.26-.03c-.11.01-.22.01-.33,0l.26.03c-.1-.02-.2-.04-.29-.08l.23.1c-.09-.04-.17-.09-.25-.15l.2.15c-.08-.06-.15-.14-.22-.22l.15.2c-.05-.07-.1-.15-.14-.24l.1.23c-.03-.08-.05-.15-.06-.23l.03.26c0-.08,0-.16,0-.23l-.03.26c.01-.08.03-.15.06-.22l-.1.23c.03-.06.06-.12.1-.17l-.15.2c.04-.05.09-.1.14-.14l-.2.15c.05-.04.11-.07.17-.1l-.23.1h.03c.24-.1.45-.23.58-.46.12-.21.17-.52.1-.75s-.22-.46-.45-.58-.51-.19-.75-.1h0Z"></path> <g> <ellipse class="cls-2" cx="19.68" cy="20.67" rx="19.88" ry="6.14" transform="translate(-3.77 36.94) rotate(-81.17)"></ellipse> <ellipse class="cls-2" cx="19.68" cy="20.67" rx="19.88" ry="6.14" transform="translate(-6.14 8.5) rotate(-21.17)"></ellipse> <ellipse class="cls-2" cx="19.68" cy="20.67" rx="6.14" ry="19.88" transform="translate(-8.76 23.04) rotate(-51.17)"></ellipse> </g> </g> </svg> 