<?xml version="1.0" encoding="UTF-8"?> <svg xmlns="http://www.w3.org/2000/svg" id="_Шар_2" data-name="Шар 2" viewBox="0 0 41.75 37.59"> <defs> <style> .cls-1 { fill: none; stroke: #8000ff; stroke-miterlimit: 10; stroke-width: 2px; } .cls-2 { fill: #8000ff; } </style> </defs> <g id="_Слой_1" data-name="Слой 1"> <path class="cls-2" d="m22.34,19.66c.06-.18.12-.35.15-.54.05-.24.09-.5.07-.74-.03-.32-.09-.55-.23-.84-.05-.1-.11-.18-.17-.26s-.12-.16-.2-.23c-.22-.18-.46-.34-.74-.4s-.55-.06-.82.02c-.46.15-.81.46-1.07.86-.46.73-.46,1.71-.06,2.47.23.44.66.79,1.14.92.25.07.48.07.72.04.33-.04.59-.18.85-.39.43-.36.57-.99.43-1.51-.07-.25-.21-.51-.4-.69-.26-.25-.59-.38-.95-.39-.51-.02-1,.46-.97.97.02.55.43.95.97.97.02,0,.03,0,.05,0l-.26-.03s.06.01.09.02l-.23-.1s.07.03.1.06l-.2-.15s.06.05.08.08l-.15-.2s.05.08.07.12l-.1-.23c.02.05.04.11.04.16l-.03-.26s0,.1,0,.14l.03-.26s-.02.09-.04.14l.1-.23s-.04.07-.06.1l.15-.2s-.06.07-.1.1l.2-.15s-.08.05-.12.07l.23-.1c-.05.02-.11.04-.16.05l.26-.03c-.08.01-.15.01-.23,0l.26.03c-.07-.01-.13-.03-.2-.05l.23.1c-.06-.03-.12-.06-.18-.1l.2.15c-.07-.05-.13-.11-.18-.18l.15.2c-.05-.07-.1-.15-.13-.23l.1.23c-.05-.13-.09-.26-.11-.39l.03.26c-.02-.15-.02-.3,0-.45l-.03.26c.02-.13.06-.25.11-.37l-.1.23c.05-.11.11-.21.18-.3l-.15.2c.05-.07.11-.13.18-.18l-.2.15c.06-.04.12-.08.18-.11l-.23.1s.1-.03.15-.04l-.26.03c.06,0,.12,0,.18,0l-.26-.03s.09.02.14.04l-.23-.1c.06.02.11.05.16.09l-.2-.15c.06.05.11.1.15.15l-.15-.2c.04.06.08.12.11.19l-.1-.23c.04.09.06.18.08.27l-.03-.26c.02.13.01.26,0,.39l.03-.26c-.03.23-.1.46-.18.68s-.02.54.1.75.35.4.58.45c.54.12,1.03-.16,1.2-.68h0Z"></path> <g> <ellipse class="cls-1" cx="20.87" cy="18.79" rx="19.88" ry="6.14" transform="translate(-6.13 26.54) rotate(-58)"></ellipse> <ellipse class="cls-1" cx="20.87" cy="18.79" rx="6.14" ry="19.88" transform="translate(1.36 39) rotate(-88)"></ellipse> <ellipse class="cls-1" cx="20.87" cy="18.79" rx="6.14" ry="19.88" transform="translate(-6.38 12) rotate(-28)"></ellipse> </g> </g> </svg> 