<?xml version="1.0" encoding="UTF-8"?> <svg xmlns="http://www.w3.org/2000/svg" id="_Шар_2" data-name="Шар 2" viewBox="0 0 40.25 40.82"> <defs> <style> .cls-1 { fill: #bababa; } .cls-2 { fill: none; stroke: #bababa; stroke-miterlimit: 10; stroke-width: 2px; } </style> </defs> <g id="_Слой_1" data-name="Слой 1"> <path class="cls-1" d="m20.83,18.36l-.56-.17s-.09-.03-.14-.04c-.26-.07-.54-.04-.77.09-.13.07-.25.17-.36.27-.14.11-.26.25-.37.39s-.22.3-.3.47c-.18.39-.31.82-.26,1.26.03.32.09.56.23.85.08.18.21.34.34.48.26.28.64.49,1.01.59s.8.11,1.17,0c.24-.08.42-.18.61-.32s.34-.31.45-.51c.22-.42.28-.91.14-1.36-.15-.48-.45-.88-.87-1.15-.2-.13-.43-.2-.66-.23-.16-.02-.26-.02-.42,0-.2.03-.33.08-.53.16-.21.09-.39.37-.45.58-.06.23-.04.54.1.75s.33.39.58.45l.26.03c.18,0,.34-.04.49-.13h.02c-.08.02-.16.06-.23.09.05-.02.09-.03.14-.04l-.26.03c.05,0,.11,0,.16,0l-.26-.03c.06,0,.12.03.18.05l-.23-.1c.07.03.13.07.18.11l-.2-.15c.06.05.12.11.17.17l-.15-.2c.06.08.11.17.15.26l-.1-.23c.03.08.05.16.07.24l-.03-.26c0,.07.01.15,0,.22l.03-.26c0,.06-.02.13-.05.19l.1-.23c-.02.05-.05.1-.09.15l.15-.2c-.04.05-.09.1-.14.14l.2-.15c-.07.05-.14.09-.21.12l.23-.1c-.08.03-.16.05-.24.06l.26-.03c-.11.01-.22.01-.33,0l.26.03c-.11-.02-.22-.05-.32-.09l.23.1c-.1-.04-.19-.09-.27-.15l.2.15c-.08-.06-.14-.12-.2-.2l.15.2c-.05-.07-.1-.14-.13-.23l.1.23c-.04-.1-.07-.21-.09-.32l.03.26c-.01-.12-.01-.24,0-.36l-.03.26c.02-.14.06-.28.11-.41l-.1.23c.06-.14.14-.27.23-.4l-.15.2c.09-.11.19-.21.31-.3l-.2.15s.1-.07.15-.1l-.75.1.73.21c.24.07.54.03.75-.1.2-.12.4-.35.45-.58.12-.52-.16-1.04-.68-1.2h0Z"></path> <g> <ellipse class="cls-2" cx="20.12" cy="20.41" rx="19.88" ry="6.14" transform="translate(-4.35 35.32) rotate(-76.76)"></ellipse> <ellipse class="cls-2" cx="20.12" cy="20.41" rx="19.88" ry="6.14" transform="translate(-5.03 6.67) rotate(-16.76)"></ellipse> <ellipse class="cls-2" cx="20.12" cy="20.41" rx="6.14" ry="19.88" transform="translate(-8.53 21.09) rotate(-46.76)"></ellipse> </g> </g> </svg> 