<?xml version="1.0" encoding="UTF-8"?> <svg xmlns="http://www.w3.org/2000/svg" id="_Шар_2" data-name="Шар 2" viewBox="0 0 15.63 272.11"> <defs> <style> .cls-1 { fill: #f8871f; } </style> </defs> <g id="_Слой_1" data-name="Слой 1"> <path class="cls-1" d="m5.8.93c.25,2.59,1.29,4.89,2.38,7.22s2.51,5.19,1.86,7.84c-.54,2.2-2.54,3.73-4.04,5.3s-2.82,3.51-3.49,5.66c-2.85,9.16,6.94,16.24,10.44,23.6,3.81,8.05-7.37,13.01-9.61,19.63-1.61,4.77.65,9.24,3.24,13.15.65.99,1.33,1.96,1.97,2.95.69,1.07,1.6,2.27,1.93,3.51.4,1.47-.13,3.14-.54,4.55-.44,1.48-.91,2.96-1.63,4.34-2.18,4.17-6.16,7.63-6.97,12.44s2.55,9.23,5.22,12.74c1.4,1.85,2.87,3.66,4.06,5.66.55.92,1.08,1.9,1.4,2.92.37,1.2.43,2.65.55,3.9.15,1.56.02,2.64-.89,3.93s-1.75,2.47-2.6,3.71c-1.63,2.37-3.21,4.78-4.52,7.34-2.34,4.56-3.72,9.6-2.69,14.72.59,2.94,1.98,5.34,3.51,7.87,1.4,2.32,2.4,4.9,2.79,7.59s.13,5.45-.72,8.04c-.93,2.81-2.89,4.95-3.99,7.64-2.08,5.1-.93,10.72,1.64,15.42.64,1.16,1.36,2.28,2.15,3.34s1.63,2.1,1.94,3.49c.45,2.06-.4,3.96-1.5,5.66-2.22,3.39-5.96,6.6-5.64,11.01.18,2.53,1.3,4.95,2.69,7.03.71,1.06,1.52,2.02,2.36,2.97,1.02,1.16,1.66,2.68,2.07,4.15.38,1.35.58,2.8.36,4.2s-1.14,2.62-1.99,3.73c-1.65,2.16-3.59,4.09-5.12,6.35-.6.9-1.3,1.87-1.71,2.87-.45,1.11-.49,2.31-.66,3.48-.17,1.23,1.71,1.76,1.88.52.15-1.1.13-2.34.62-3.35.56-1.17,1.39-2.36,2.17-3.4,1.67-2.23,3.68-4.2,5.25-6.52,1.46-2.16,1.84-4.36,1.41-6.93-.45-2.73-1.65-5.03-3.44-7.08s-3.47-4.72-3.88-7.51c-.36-2.42.78-4.33,2.13-6.23,2.25-3.16,5.51-6.37,5.03-10.59-.3-2.59-1.93-4.22-3.29-6.3-1.57-2.4-2.8-5.04-3.34-7.87s-.25-5.87,1.03-8.5c.61-1.26,1.55-2.35,2.22-3.59s1.22-2.55,1.64-3.89c1.54-5.03.84-10.42-1.49-15.08-1.32-2.64-3.09-4.87-3.91-7.77-.74-2.65-.79-5.42-.2-8.11,1.22-5.57,4.6-10.43,7.81-15.02.76-1.09,1.71-2.17,2.35-3.34.58-1.07.63-2.39.54-3.58-.17-2.46-.46-4.77-1.57-6.99-2.1-4.17-5.59-7.45-7.89-11.5-1.21-2.13-2.3-4.68-1.76-7.16s1.98-4.45,3.37-6.4,2.9-4,3.89-6.27c1.07-2.46,2.23-5.6,1.92-8.32-.27-2.35-2.08-4.54-3.36-6.45-1.37-2.04-2.83-4.09-3.7-6.41s-.98-4.8-.02-7.08c.74-1.76,2.02-3.25,3.3-4.64,2.5-2.73,5.5-5.42,6.56-9.1,1.26-4.37-1.12-8.12-3.55-11.57-2.63-3.72-5.98-7.39-7.3-11.84-.61-2.06-.6-4.2.2-6.22.9-2.28,2.57-3.93,4.24-5.64,1.54-1.57,2.97-3.34,3.21-5.6.27-2.46-.64-4.88-1.62-7.09-1.09-2.44-2.45-4.83-2.72-7.54-.12-1.24-2.07-1.25-1.95,0h0Z"></path> </g> </svg> 