<?xml version="1.0" encoding="UTF-8"?> <svg xmlns="http://www.w3.org/2000/svg" id="_Шар_2" data-name="Шар 2" viewBox="0 0 13.76 161.91"> <defs> <style> .cls-1 { fill: #f8871f; } </style> </defs> <g id="_Слой_1" data-name="Слой 1"> <path class="cls-1" d="m12.49,160.12c-2.5-1.25-5.24-2.7-6.9-5.03-1.95-2.74-1.08-5.67.6-8.29s3.53-4.99,4.7-7.89c1.11-2.75,1.73-5.78,1.39-8.75-.33-2.81-1.55-5.24-3.39-7.36s-4.07-3.8-5.55-6.15c-3.96-6.28,1.73-12.95,5.37-17.81s6.99-11.03,3.75-16.9c-1.43-2.58-3.71-4.52-5.56-6.78-2.13-2.61-3.65-5.7-4.44-8.97-.88-3.65-.64-7.2,1.09-10.57,1.56-3.04,3.69-5.74,5.11-8.85,1.34-2.94,2.29-6.2,1.98-9.46-.26-2.8-1.46-5.28-2.93-7.63-1.59-2.54-3.61-4.99-4.52-7.89-.96-3.06.04-5.8,2.01-8.19,1.86-2.26,4.16-4.22,5.56-6.83,1.1-2.05,1.7-5.35-.83-6.64-1.11-.57-2.1,1.11-.98,1.68,2.58,1.32-.85,5.6-1.9,6.81-1.68,1.94-3.63,3.72-4.91,5.97-2.82,4.96-.29,9.7,2.53,13.97,1.51,2.29,3.15,4.62,3.79,7.32.82,3.41-.12,6.99-1.56,10.1s-3.58,5.79-5.11,8.85-2.07,6.26-1.6,9.65c.44,3.21,1.57,6.33,3.25,9.1s3.79,4.7,5.75,7.04c2.15,2.57,3.21,5.54,2.38,8.88s-2.79,6.08-4.77,8.7c-3.6,4.75-8.35,10.76-6.2,17.13,1.84,5.46,8.09,7.91,9.52,13.58.87,3.46.02,7.19-1.46,10.36s-4.03,5.71-5.39,8.92c-2.81,6.61,3.05,10.99,8.29,13.62,1.12.56,2.11-1.12.98-1.68h0Z"></path> </g> </svg> 