<?xml version="1.0" encoding="UTF-8"?> <svg xmlns="http://www.w3.org/2000/svg" id="_Шар_2" data-name="Шар 2" viewBox="0 0 209.72 47.37"> <defs> <style> .cls-1 { fill: #f8871f; } </style> </defs> <g id="_Слой_1" data-name="Слой 1"> <path class="cls-1" d="m2.8,22.59c3.19-2.3,6.47-4.67,8.64-8.02,1.98-3.04,3.02-7.04,1.57-10.51C11.76,1.07,8.35-1.02,5.2.51,2.23,1.96,1.23,5.64.67,8.61c-.81,4.28-.88,8.65-.23,12.95.51,3.35,1.47,7.1,4.46,9.09,2.64,1.76,6.23,1.56,8.94.08s4.95-4.8,3.18-7.92c-1.91-3.37-6.51-4.39-9.9-2.81s-4.85,5.65-3.09,8.92c.6,1.1,2.28.12,1.68-.98-1.33-2.47.15-5.45,2.68-6.36s5.79-.11,7.02,2.38c1.34,2.72-1.78,5.06-4.08,5.72s-4.98.18-6.59-1.76c-1.8-2.16-2.26-5.32-2.57-8.02-.36-3.19-.31-6.44.18-9.61.37-2.39.84-5.27,2.54-7.12,2.04-2.23,5.17-1,6.28,1.52,1.38,3.14.12,6.8-1.76,9.43-1.99,2.79-4.85,4.82-7.6,6.8-1.01.73-.04,2.42.98,1.68h0Z"></path> <path class="cls-1" d="m19.01,20.67c-.08,2.37-.06,4.74.09,7.1.06,1,.17,2.04.75,2.89.54.8,1.38,1.29,2.28,1.6,1.89.64,4.08.39,5.83-.57s3.14-2.73,4.14-4.44c1.18-2.02,1.81-4.34,1.32-6.66-.09-.43-.53-.7-.94-.72-1.13-.04-1.48,1.04-1.56,1.96-.09,1.09-.08,2.2-.02,3.29.12,2.24.49,4.46,1.11,6.62.35,1.2,2.23.69,1.88-.52-.47-1.64-.81-3.31-.96-5.01-.07-.81-.11-1.62-.12-2.44,0-.45,0-.89.03-1.34,0-.2.01-.41.03-.61v-.14c.07-.21.06-.21-.04-.01l-.49.13h.14c-.31-.23-.63-.47-.94-.71.44,2.1-.43,4.18-1.58,5.9s-2.63,3.26-4.72,3.59c-.94.15-2,.06-2.88-.33s-1.18-1.14-1.26-2.07c-.23-2.49-.2-5.03-.12-7.52.04-1.26-1.91-1.25-1.95,0h0Z"></path> <path class="cls-1" d="m69.32,24.05c.84-2.86-1.09-5.93-3.98-6.57-3.37-.74-6.58,1.37-8,4.37-1.25,2.66-1.88,6.88,1.07,8.69,2.63,1.62,6.91,1.74,9.25-.42,2.23-2.05,2.74-5.71,1.03-8.23-.7-1.03-2.27-.14-1.68.98,1.4,2.66,2.25,5.59,2.42,8.59.16,2.81-.09,5.95-1.76,8.31-1.76,2.5-4.45,2.91-7.29,2.27-2.08-.47-4.9-1.27-5.43-3.64-.27-1.22-2.16-.71-1.88.52.63,2.8,3.43,4.12,5.96,4.8,3.3.89,6.7.9,9.26-1.66s3.15-6.14,3.13-9.51c-.02-3.73-.99-7.36-2.72-10.66l-1.68.98c1.25,1.84.91,4.52-.83,5.96-2.03,1.68-7.33,1.26-7.87-1.76-.51-2.85,1.24-6.46,3.99-7.49,2.59-.96,6.05.84,5.14,3.94-.35,1.21,1.53,1.72,1.88.52h0Z"></path> <path class="cls-1" d="m74.55,21.63c-.58,1.75-.1,3.76.09,5.55.21,1.94.43,3.87.65,5.81.06.52.41.97.97.97.48,0,1.03-.45.97-.97-.21-1.86-.42-3.73-.62-5.6-.1-.93-.21-1.85-.3-2.78-.09-.84-.15-1.66.12-2.47.4-1.19-1.49-1.71-1.88-.52h0Z"></path> <path class="cls-1" d="m74.38,14.36c.02.37,0,.73-.04,1.09l.03-.26c-.05.36-.13.72-.24,1.07-.08.23-.02.54.1.75s.35.4.58.45c.54.12,1.03-.16,1.2-.68.25-.77.36-1.61.32-2.42-.01-.26-.1-.5-.29-.69-.17-.17-.45-.3-.69-.29s-.51.09-.69.29-.3.43-.29.69h0Z"></path> <path class="cls-1" d="m83.52,23.34c.65-.95,1.99-1.24,2.9-.45,1.13.99.61,2.48-.02,3.59-1.17,2.07-2.85,3.83-4.72,5.29l1.53,1.18c1.35-2.44,5.62-1.2,7.47-.13,2.38,1.38,4.63,4.21,4.28,7.12s-3.96,4.65-6.5,5.22c-2.81.63-5.78.2-8.28-1.22-1.09-.62-2.08,1.06-.98,1.68,4.93,2.79,11.94,2.3,15.96-1.94,4.56-4.82-.42-11.72-5.53-13.47-2.6-.89-6.57-1.01-8.1,1.75-.57,1.03.7,1.83,1.53,1.18,1.6-1.25,2.99-2.7,4.16-4.36,1.05-1.48,2.15-3.32,1.75-5.2-.75-3.52-5.22-4.01-7.14-1.22-.71,1.04.98,2.01,1.68.98h0Z"></path> <path class="cls-1" d="m94.79,20.37c.16,3.53.32,7.06.46,10.59.05,1.25,1.93,1.26,1.95,0,.01-.88.03-1.77.04-2.65,0-.36-.07-.83.04-1.18-.04.11-.26.03.04.04.13,0,.25,0,.38,0,1.7,0,3.38.46,5.07.03,3.11-.8,3.89-4.14,3.16-6.92-.12-.47-.6-.77-1.07-.7-.51.08-.79.46-.85.96-.38,3.64.15,7.37,1.53,10.76.2.49.65.83,1.2.68.46-.13.88-.71.68-1.2-1.33-3.26-1.83-6.74-1.46-10.24l-1.92.26c.29,1.1.36,2.4-.24,3.41-.7,1.18-2.15,1.3-3.39,1.22-1.39-.08-3.59-.76-4.65.48-.56.66-.47,1.6-.48,2.41-.01.88-.03,1.77-.04,2.65h1.95c-.15-3.53-.3-7.06-.46-10.59-.06-1.25-2.01-1.26-1.95,0h0Z"></path> <path class="cls-1" d="m112.78,19.83c1.25-.89,2.74-.95,4.22-.86s3.03.18,3.94,1.42,1.28,2.97,1.5,4.45c.26,1.73.19,3.5-.15,5.21l1.63-.43c-2.11-1.67-3.95-3.75-6.5-4.77-2.3-.92-5.08-.74-6.74,1.27s-1.26,4.51.69,6.1c1.79,1.46,4.15,2.18,6.45,2.21,2.61.03,5.12-.84,7.16-2.47.42-.33.34-1.03,0-1.38-.4-.41-.97-.33-1.38,0-2.7,2.15-6.76,2.52-9.81.9-1.43-.76-2.89-2.1-1.86-3.78s3.19-1.69,4.86-1.02c2.25.9,3.89,2.84,5.76,4.31.52.41,1.47.36,1.63-.43.42-2.07.47-4.16.15-6.25-.29-1.87-.84-4-2.11-5.46s-3.26-1.71-5.09-1.84-3.78.02-5.32,1.12c-1.01.72-.04,2.41.98,1.68h0Z"></path> <path class="cls-1" d="m139.08,21.46c-.1-2.58-2.97-3.91-5.26-3.72-2.47.2-4.55,1.76-5.55,4.01-2.09,4.69.75,10.81,5.68,12.21,2.62.74,5.95,1.06,8.33-.5,1.05-.68.07-2.37-.98-1.68-1.58,1.04-3.57.92-5.37.62-1.96-.32-3.64-1.02-4.82-2.68s-1.83-3.56-1.55-5.52c.24-1.71,1.24-3.37,2.83-4.12.83-.39,1.83-.52,2.73-.32.82.18,1.98.73,2.01,1.7.05,1.25,2,1.26,1.95,0h0Z"></path> <path class="cls-1" d="m130.59,29.06c3.02.29,6.05.37,9.08.26,1.25-.05,1.26-2,0-1.95-3.03.12-6.06.03-9.08-.26-.52-.05-.97.48-.97.97,0,.57.45.92.97.97h0Z"></path> <path class="cls-1" d="m146.69,19.6c-.06,3.89.19,7.76.71,11.61.13.98,1.67.88,1.88,0,.03-.14.07-.28.1-.43.29-1.22-1.59-1.74-1.88-.52-.03.14-.07.28-.1.43h1.88c-.5-3.67-.7-7.39-.64-11.09.02-1.26-1.93-1.26-1.95,0h0Z"></path> <path class="cls-1" d="m142.13,19.49c4.76-.06,9.5,1.04,14.17,1.84,1.23.21,1.75-1.67.52-1.88-4.84-.83-9.76-1.97-14.69-1.91-1.25.01-1.26,1.96,0,1.95h0Z"></path> <path class="cls-1" d="m161.12,28.17c3.47,1.07,8.16.21,10.13-3.14.89-1.51.84-3.37-.3-4.73-1.05-1.25-2.71-1.84-4.29-2.01-1.8-.19-3.54.2-4.93,1.4-1.2,1.04-1.97,2.58-2.2,4.14-.51,3.48,1.77,6.74,4.74,8.36,3.67,2,8.38,1.71,11.82-.62,1.03-.7.06-2.39-.98-1.68-2.34,1.59-5.28,2.11-8.02,1.35-2.49-.69-4.83-2.54-5.51-5.11-.59-2.2.46-4.98,2.75-5.73,1.82-.6,6.15.12,5.57,2.87-.32,1.52-1.93,2.53-3.3,2.99-1.62.55-3.33.54-4.96.04-1.2-.37-1.72,1.51-.52,1.88h0Z"></path> <path class="cls-1" d="m186.75,21.7c1.18-3.2-3.97-3.87-5.98-3.39-3.2.76-3.69,4.79-3.37,7.55.34,2.98,2.36,5.32,5.31,5.95s5.81-.46,7.96-2.48c2.36-2.21,4.73-6.08,3.44-9.38-.31-.8-1.68-1.05-1.88,0-.42,2.2-.58,4.43-.4,6.67.15,1.8.28,4.04,1.78,5.28,2.43,1.99,6.67.9,8.11-1.79,1.36-2.54-.18-6.3-3.26-6.51-3.39-.23-6.95,2.94-6.97,6.32,0,1.26,1.94,1.26,1.95,0,.02-2.23,2.43-4.31,4.62-4.38s2.8,2.99,1.4,4.34c-1.56,1.51-4.74,1.59-5.33-.85-.66-2.76-.55-5.79-.03-8.56h-1.88c.99,2.55-.94,5.49-2.7,7.24s-4.37,2.85-6.92,2.06c-2.78-.87-3.57-3.58-3.28-6.24.15-1.36.4-2.98,1.94-3.34.59-.14,3.99-.12,3.58.99-.43,1.18,1.45,1.69,1.88.52h0Z"></path> <path class="cls-1" d="m207.46,19.44v1.54c0,.25.11.51.29.69s.45.3.69.29.51-.09.69-.29.29-.43.29-.69v-1.54c0-.25-.11-.51-.29-.69s-.45-.3-.69-.29-.51.09-.69.29-.29.43-.29.69h0Z"></path> <path class="cls-1" d="m207.77,26.06v1.85c0,.25.11.51.29.69s.45.3.69.29.51-.09.69-.29.29-.43.29-.69v-1.85c0-.25-.11-.51-.29-.69s-.45-.3-.69-.29-.51.09-.69.29-.29.43-.29.69h0Z"></path> </g> </svg> 