<?xml version="1.0" encoding="UTF-8"?> <svg xmlns="http://www.w3.org/2000/svg" id="_Шар_2" data-name="Шар 2" viewBox="0 0 231.77 46.08"> <defs> <style> .cls-1 { fill: #f8871f; } </style> </defs> <g id="_Слой_1" data-name="Слой 1"> <path class="cls-1" d="m1.09.64c-2.56,6.09-.47,13.21,4.96,16.96,2.69,1.86,6.22,2.78,9.3,1.36,2.78-1.28,4.82-4.04,5.96-6.81,1.33-3.23,1.52-6.85.53-10.2-.31-1.05-1.9-.85-1.92.26-.08,7.12,3.1,14.88.05,21.75-1.28,2.89-3.68,4.96-6.81,5.56-1.4.27-2.86.22-4.24-.12-.88-.22-4.03-1.23-3.87-2.46s-1.79-1.23-1.95,0c-.22,1.72,1.83,2.92,3.15,3.55,1.49.72,3.13,1.1,4.78,1.15,3.54.09,6.98-1.43,9.15-4.24,5.63-7.29,1.58-16.98,1.68-25.19l-1.92.26c.93,3.13.71,6.53-.68,9.5-1.47,3.14-4.35,6.23-8.12,5.67-3.35-.5-6.26-3.01-7.84-5.91-1.78-3.29-1.78-7.17-.35-10.57C3.45,0,1.57-.5,1.09.64h0Z"></path> <path class="cls-1" d="m44.35,18.43c-1.08,4.13-1.16,9.23,1.93,12.57,1.56,1.68,3.64,2.07,5.67,1.01,1.88-.98,3.53-2.62,4.46-4.53,1.2-2.46,1.25-5.24.13-7.72-.33-.73-1.66-.58-1.78.23-.47,2.97-.24,6.01.82,8.84.42,1.11.92,2.81,2.34,2.9.69.04,1.28-.32,1.83-.68.72-.45,1.43-.91,2.14-1.37l-1.43-.58c.33,1.9-.21,3.78-1.36,5.31-.75,1,.94,1.98,1.68.98,1.47-1.96,1.97-4.41,1.55-6.81-.11-.61-.94-.9-1.43-.58-.53.34-1.07.68-1.6,1.02-.16.1-1.01.8-1.2.73-.21-.08-.51-1.1-.59-1.32-.19-.49-.35-.99-.49-1.5-.58-2.09-.71-4.3-.38-6.44l-1.78.23c.98,2.16.64,4.68-.62,6.64-.57.89-1.33,1.67-2.18,2.28s-1.9,1.3-2.96.96c-1.95-.61-2.92-3.17-3.28-4.97-.44-2.22-.15-4.54.41-6.71.32-1.22-1.56-1.73-1.88-.52h0Z"></path> <path class="cls-1" d="m64.09,18.75c-.69,2.7-.84,5.64-.17,8.36.56,2.26,2.09,4.38,4.63,4.41s4.55-2.15,4.61-4.65c.03-1.22-.44-2.48-1.57-3.07-.97-.51-2.2-.6-3.28-.5-1.22.12-2.5.52-3.31,1.5-.99,1.2-.98,2.7-.8,4.17.06.52.4.97.97.97.48,0,1.04-.45.97-.97-.1-.85-.3-1.91.17-2.69.35-.58,1-.84,1.64-.98.68-.14,1.44-.14,2.12,0,.82.18,1.14.62,1.13,1.47-.01,1.57-1.29,2.94-2.91,2.77s-2.28-1.9-2.58-3.28c-.49-2.3-.34-4.74.24-7.01.31-1.22-1.57-1.73-1.88-.52h0Z"></path> <path class="cls-1" d="m74.86,27.44c1.02,2.64,3.34,4.72,6.18,5.18s6.07-.74,7.8-3.2c1.82-2.59.61-5.89-1.72-7.68s-5.77-2.16-8.21-.48-3.34,5.21-1.59,7.63c.31.43.84.63,1.33.35.42-.24.66-.91.35-1.33-1.05-1.45-.7-3.48.57-4.69,1.52-1.45,4.04-1.3,5.76-.33s3.15,3.17,2.1,5.1-3.37,2.89-5.46,2.78c-2.29-.11-4.42-1.72-5.24-3.85-.19-.49-.66-.83-1.2-.68-.47.13-.87.7-.68,1.2h0Z"></path> <path class="cls-1" d="m92.16,19.92c-.09,3.31.04,6.61.38,9.9.1,1,1.7,1.43,1.92.26.4-2.14-.19-4.15-.46-6.26-.06-.46-.09-.93-.08-1.39,0-.41-.01-1.17.26-1.51.46-.57,1.37.55,1.6.91.99,1.58,1.35,3.55,3.05,4.6,1.8,1.11,3.87.14,5.16-1.28,1.49-1.64,2.26-3.88,2.05-6.09h-1.95c.28,2.59.65,5.17,1.12,7.73.19,1.03.34,2.27,1.05,3.1.65.76,2.25.56,2.1-.69-.06-.53-.4-.97-.97-.97-.48,0-1.04.45-.97.97v.1c.11-.23.2-.46.3-.69l.24-.13.75.1c-.15-.08-.25-.6-.3-.76-.09-.33-.16-.66-.22-.99-.17-.87-.32-1.74-.46-2.62-.28-1.71-.5-3.43-.69-5.15-.13-1.23-2.07-1.26-1.95,0,.18,1.86-.42,3.72-1.78,5.02-.6.57-1.49,1.16-2.33.76-.76-.35-1.2-1.25-1.53-1.97-.73-1.58-1.49-3.55-3.41-3.96-.92-.2-1.9.06-2.44.86s-.64,1.94-.63,2.89c.03,2.3,1.05,4.6.61,6.9l1.92.26c-.34-3.29-.47-6.6-.38-9.9.03-1.26-1.92-1.25-1.95,0h0Z"></path> <path class="cls-1" d="m110.79,19.12c-.57,4.39-.39,13.11,6.35,11.67,2.56-.55,4.27-2.76,5.27-5.04s1.48-5.23-.95-6.82c-.62-.41-1.48.13-1.47.84.04,2.83,1.5,5.45,2.17,8.16s1.11,5.85.89,8.76c-.1,1.32-.49,2.58-1.69,3.28s-2.71.87-4.06.87c-2.34,0-5.94-.78-6.52-3.48-.26-1.23-2.14-.71-1.88.52.65,3.04,3.95,4.4,6.73,4.79s6.61.04,8.34-2.49,1.11-6.57.71-9.44c-.26-1.81-.66-3.6-1.2-5.35-.58-1.84-1.5-3.65-1.53-5.61l-1.47.84c1.8,1.18.42,4.03-.39,5.43-.89,1.54-2.3,2.93-4.2,2.93-4.28,0-3.49-7.19-3.14-9.86.16-1.24-1.79-1.23-1.95,0h0Z"></path> <path class="cls-1" d="m142.66,28.12c2.1.15,4.21-.19,6.15-.99,1.64-.68,3.38-1.74,3.85-3.58.43-1.67-.28-3.52-1.59-4.61-1.41-1.18-3.31-1.48-5.09-1.22s-3.44,1.15-4.38,2.77c-.85,1.48-1.09,3.26-.87,4.94.44,3.34,2.65,6.39,5.81,7.64,3.43,1.36,7.71.28,9.99-2.64.33-.42.4-.97,0-1.38-.33-.34-1.05-.41-1.38,0-1.54,1.96-4.08,2.96-6.55,2.57s-4.48-2.21-5.42-4.48-.98-5.61,1.34-6.94c2.06-1.18,6.03-.81,6.3,2.12.15,1.62-1.49,2.5-2.77,3.03-1.72.7-3.55.96-5.4.83-1.25-.09-1.25,1.86,0,1.95h0Z"></path> <path class="cls-1" d="m156.41,19.7c.82,3.77,1.23,7.6,1.25,11.45,0,1.06,1.74,1.38,1.92.26.3-1.89.26-3.78.05-5.68-.1-.92-.24-1.83-.38-2.74-.07-.43-.14-.85-.18-1.28-.03-.26-.04-.51-.05-.77,0-.11,0-.22,0-.33,0-.24,0-.29.02-.15l-.35.35c-.15.01-.15.01,0,0,.11-.01.22-.02.33-.03.22-.02.45-.03.67-.05.37-.02.74-.04,1.11-.05.82-.02,1.64,0,2.45.04s1.61.12,2.41.23c.44.06.88.13,1.32.22.3.06.89.3,1.17.24.16.05.11,0-.15-.16v.22c-.06.18-.03.46-.04.65-.02.4-.06.79-.09,1.19-.07.79-.14,1.59-.18,2.38-.08,1.61,0,3.25.48,4.8.37,1.2,2.25.69,1.88-.52-.64-2.1-.43-4.29-.25-6.45.05-.54.09-1.08.12-1.62s.1-1.17-.21-1.67c-.54-.87-1.97-.91-2.87-1.05-2.29-.37-4.61-.52-6.93-.4-.95.05-2.37-.06-2.74,1.06-.32.98-.03,2.24.12,3.23.39,2.58.81,5.22.4,7.83l1.92.26c-.02-4.02-.47-8.04-1.32-11.97-.27-1.23-2.15-.71-1.88.52h0Z"></path> <path class="cls-1" d="m173.44,20.68c.25,2.15.52,4.29.8,6.44.14,1.05.28,2.11.43,3.16.07.49.08.99.36,1.41.31.47.83.68,1.37.53,1.2-.35.69-2.23-.52-1.88l-.1.03h.52l-.09-.03.43.25c.06.17.07.17.02,0l-.03-.21c-.04-.24-.07-.48-.1-.73-.06-.41-.11-.83-.17-1.24-.11-.85-.23-1.69-.33-2.54-.22-1.73-.44-3.46-.64-5.19-.06-.52-.4-.97-.97-.97-.48,0-1.04.45-.97.97h0Z"></path> <path class="cls-1" d="m173.99,13.3v2c0,.25.11.51.29.69s.45.3.69.29c.53-.02.97-.43.97-.97v-2c0-.25-.11-.51-.29-.69s-.45-.3-.69-.29c-.53.02-.97.43-.97.97h0Z"></path> <path class="cls-1" d="m183.4,21.89c.53-.51,1.34-.44,1.93-.05.76.5.92,1.47.77,2.31-.36,1.95-2.22,3.07-3.83,3.92l1.33,1.33c1.36-2.05,5.37-.93,6.99.13,2.15,1.42,3.08,4.09,1.97,6.46-1.05,2.23-3.31,3.9-5.64,4.59s-5.5.15-6.49-2.44c-.44-1.16-2.33-.66-1.88.52.94,2.46,3.24,3.99,5.85,4.17,2.83.19,5.73-1.19,7.77-3.09,1.84-1.72,3.12-4.18,2.78-6.74-.37-2.77-2.42-4.95-4.97-5.95s-6.37-1.18-8.06,1.36c-.57.86.52,1.76,1.33,1.33,2.64-1.38,5.44-3.78,4.76-7.11-.55-2.66-3.9-4.12-5.99-2.13-.91.87.47,2.24,1.38,1.38h0Z"></path> <path class="cls-1" d="m194.97,26.67c.9,2.77,3.58,4.31,6.37,4.52,1.59.12,3.24-.17,4.75-.64,1.39-.43,2.77-1.16,3.48-2.49,1.43-2.71-.15-5.75-2.14-7.68s-5.02-3.32-7.82-2.49c-3.69,1.1-3.72,5.76-3.27,8.9.07.53.74.8,1.2.68.56-.15.75-.68.68-1.2-.18-1.26-.16-2.57.05-3.82.18-1.04.43-2.07,1.47-2.54,1.87-.85,4.19.09,5.68,1.29s3.2,3.28,2.65,5.36c-.28,1.04-1.14,1.63-2.11,1.98-1.12.4-2.34.67-3.53.72-2.23.09-4.83-.78-5.58-3.11-.39-1.19-2.27-.68-1.88.52h0Z"></path> <path class="cls-1" d="m221.61,24.23c1.79-2.44-.95-5.22-3.36-5.54-3.26-.43-5.78,1.9-6.55,4.92-.71,2.79-.55,6.39,1.96,8.22s6.14,1.08,8.34-1.07c2.36-2.31,3.3-6.49.4-8.8-.66-.53-2.02-.07-1.63.95,2.03,5.24,5.25,11.63,2.56,17.2-2.45,5.08-9.01,5.07-12.76,1.46-.9-.87-2.29.51-1.38,1.38,4.23,4.07,11.56,4.48,15.12-.66,4.25-6.13.69-13.81-1.66-19.9l-1.63.95c2.25,1.79,1.1,4.85-.81,6.41-2.05,1.67-5.59,1.72-6.6-1.15-.74-2.11-.35-5.38,1.29-6.99.93-.92,2.34-1.28,3.61-.91,1.01.3,2.2,1.47,1.43,2.53s.95,1.99,1.68.98h0Z"></path> <path class="cls-1" d="m228.62,20.42c-.34,1.02-.37,2.1-.34,3.17.04,1.17.1,2.34.18,3.51.06.98.05,2.05.35,3,.14.45.36.88.69,1.22.17.18.4.37.64.44.32.09.63-.03.94-.12,1.21-.33.7-2.21-.52-1.88-.14.04-.28.08-.42.12l.95.25c-.47-.37-.52-.95-.57-1.52-.07-.87-.13-1.74-.18-2.62-.09-1.63-.37-3.47.16-5.05.4-1.19-1.48-1.7-1.88-.52h0Z"></path> <path class="cls-1" d="m228.61,13.61v.62c0,.13.02.26.08.38.04.12.11.23.2.31.09.1.19.16.31.2.12.06.24.09.38.08l.26-.03c.17-.05.31-.13.43-.25l.15-.2c.09-.15.13-.32.13-.49v-.62c0-.13-.02-.26-.08-.38-.04-.12-.11-.23-.2-.31-.09-.1-.19-.16-.31-.2-.12-.06-.24-.09-.38-.08l-.26.03c-.17.05-.31.13-.43.25l-.15.2c-.09.15-.13.32-.13.49h0Z"></path> </g> </svg> 